<?xml version="1.0" standalone="no"?><!DOCTYPE svg PUBLIC "-//W3C//DTD SVG 1.1//EN" "http://www.w3.org/Graphics/SVG/1.1/DTD/svg11.dtd"><svg t="1698033258146" class="icon" viewBox="0 0 1024 1024" version="1.1" xmlns="http://www.w3.org/2000/svg" p-id="2502" xmlns:xlink="http://www.w3.org/1999/xlink" width="200" height="200"><path d="M637.8496 372.5824c8.5504 49.152 19.0464 95.6416 24.32 143.5136 7.8336 71.0656-62.4128 137.5232-116.8896 156.16-86.016 29.8496-185.1904-41.216-207.5136-124.2624-25.6-97.024 27.5456-215.296 116.224-253.7984 9.8304-4.6592 19.712-8.6528 29.5424-13.312 20.3776-9.2672 10.496-24.576 7.2192-38.5024-9.216-38.5536-14.4384-77.1072 5.2736-112.9472 29.5424-53.8112 106.3424-96.3584 166.144-70.4512 25.6 11.264 51.8656 21.9648 75.52 36.5568 21.6576 13.312 30.208 43.1616 22.9888 62.464-12.4928 33.2288-45.312 41.8304-80.128 21.248-12.4928-7.3216-24.9856-15.9232-38.0928-21.9136-25.6-11.9808-53.248 5.3248-51.8656 33.8944 0.6144 22.528 5.2224 45.1584 8.4992 65.7408 31.5392 9.3184 61.7472 14.6432 89.344 26.624 84.6848 37.8368 145.1008 99.6352 173.3632 192 52.5312 171.3664-45.9776 342.1184-191.7952 407.1936-82.0736 37.2224-167.424 49.152-254.7712 29.2352a389.12 389.12 0 0 1-150.3744-71.7312c-55.808-43.1616-97.8432-95.0272-125.44-159.4368-39.424-90.368-49.92-182.7328-19.0464-280.3712 41.3696-130.8672 124.1088-219.904 250.2144-269.056a50.688 50.688 0 0 1 61.0816 21.248c13.7728 23.2448 9.216 49.152-13.1584 65.1264-17.0496 11.9296-36.7616 19.9168-55.1424 29.9008-69.632 35.84-112.9472 94.3104-140.544 167.424-53.8624 142.1312 20.3776 306.8928 143.1552 371.3536 112.9472 59.8016 267.264 35.84 350.72-62.464 51.8144-61.1328 66.9184-133.5296 51.2-209.2544-13.1584-62.464-55.1936-107.008-111.0016-137.5232-2.6112-1.3312-5.9392-2.048-9.216-2.6624-4.608-1.9968-8.4992-1.9968-9.8304-1.9968z m-107.008 0c-82.7904 19.2512-120.2176 104.2944-84.0704 172.7488 12.4416 23.9104 43.3152 37.1712 65.6384 30.5664 30.8736-9.3184 52.5312-31.8976 47.9744-61.1328-7.2704-47.8208-19.712-95.0272-29.5936-142.1824z" fill="#E82201" p-id="2503"></path></svg>